<?xml version="1.0" encoding="UTF-8" standalone="no"?>
<!-- Created with Inkscape (http://www.inkscape.org/) -->

<svg
   width="90mm"
   height="30mm"
   viewBox="0 0 90 30"
   version="1.1"
   id="svg5"
   sodipodi:docname="stroke.svg"
   inkscape:version="1.2.1 (9c6d41e410, 2022-07-14)"
   xmlns:inkscape="http://www.inkscape.org/namespaces/inkscape"
   xmlns:sodipodi="http://sodipodi.sourceforge.net/DTD/sodipodi-0.dtd"
   xmlns="http://www.w3.org/2000/svg"
   xmlns:svg="http://www.w3.org/2000/svg">
  <sodipodi:namedview
     id="namedview7"
     pagecolor="#ffffff"
     bordercolor="#666666"
     borderopacity="1.0"
     inkscape:showpageshadow="2"
     inkscape:pageopacity="0.0"
     inkscape:pagecheckerboard="0"
     inkscape:deskcolor="#d1d1d1"
     inkscape:document-units="mm"
     showgrid="false"
     inkscape:zoom="2"
     inkscape:cx="230.75"
     inkscape:cy="64.500001"
     inkscape:window-width="1920"
     inkscape:window-height="1001"
     inkscape:window-x="-7"
     inkscape:window-y="-7"
     inkscape:window-maximized="1"
     inkscape:current-layer="layer1" />
  <defs
     id="defs2">
    <inkscape:path-effect
       effect="roughen"
       id="path-effect3831"
       is_visible="true"
       lpeversion="1.2"
       method="segments"
       max_segment_size="2"
       segments="2"
       displace_x="0.4;1"
       displace_y="0.3;1"
       global_randomize="1;1"
       handles="along"
       shift_nodes="true"
       fixed_displacement="false"
       spray_tool_friendly="false" />
    <inkscape:path-effect
       effect="roughen"
       id="path-effect3829"
       is_visible="true"
       lpeversion="1.2"
       method="size"
       max_segment_size="1.5"
       segments="4"
       displace_x="1;842591527"
       displace_y="1;2013993473"
       global_randomize="1;1"
       handles="along"
       shift_nodes="true"
       fixed_displacement="false"
       spray_tool_friendly="false" />
    <inkscape:path-effect
       effect="roughen"
       id="path-effect2468"
       is_visible="true"
       lpeversion="1.2"
       method="segments"
       max_segment_size="1.75"
       segments="2"
       displace_x="4;1"
       displace_y="4;979814276"
       global_randomize="1;719748088"
       handles="along"
       shift_nodes="true"
       fixed_displacement="false"
       spray_tool_friendly="false" />
    <inkscape:path-effect
       effect="roughen"
       id="path-effect2409"
       is_visible="false"
       lpeversion="1.2"
       method="segments"
       max_segment_size="20"
       segments="2"
       displace_x="10;1"
       displace_y="10;1"
       global_randomize="1;342906175"
       handles="along"
       shift_nodes="true"
       fixed_displacement="false"
       spray_tool_friendly="false" />
    <inkscape:path-effect
       effect="roughen"
       id="path-effect957"
       is_visible="true"
       lpeversion="1.2"
       method="segments"
       max_segment_size="1.4"
       segments="2"
       displace_x="5;1"
       displace_y="8;1"
       global_randomize="1;1605379894"
       handles="along"
       shift_nodes="true"
       fixed_displacement="false"
       spray_tool_friendly="false" />
    <inkscape:path-effect
       effect="powerstroke"
       id="path-effect961"
       is_visible="true"
       lpeversion="1"
       offset_points="0.2,3.75 | 1.3115481,2.9317733 | 1.740716,4.2321178"
       not_jump="false"
       sort_points="true"
       interpolator_type="CentripetalCatmullRom"
       interpolator_beta="0.2"
       start_linecap_type="zerowidth"
       linejoin_type="round"
       miter_limit="4"
       scale_width="1"
       end_linecap_type="zerowidth" />
    <inkscape:path-effect
       effect="roughen"
       id="path-effect947"
       is_visible="true"
       lpeversion="1.2"
       method="segments"
       max_segment_size="1.4"
       segments="2"
       displace_x="10;1"
       displace_y="10;1"
       global_randomize="1;1136637958"
       handles="along"
       shift_nodes="true"
       fixed_displacement="false"
       spray_tool_friendly="false" />
    <inkscape:path-effect
       effect="powerstroke"
       id="path-effect959"
       is_visible="true"
       lpeversion="1"
       offset_points="0.2,3.75 | 0.63115986,4.3246387 | 1.2825806,4.7153713"
       not_jump="false"
       sort_points="true"
       interpolator_type="CentripetalCatmullRom"
       interpolator_beta="0.23"
       start_linecap_type="zerowidth"
       linejoin_type="round"
       miter_limit="4"
       scale_width="1"
       end_linecap_type="zerowidth" />
  </defs>
  <g
     inkscape:label="Layer 1"
     inkscape:groupmode="layer"
     id="layer1">
    <path
       style="fill:none;stroke:#aa1313;stroke-width:2.07164;stroke-linecap:round;stroke-linejoin:miter;stroke-dasharray:none;stroke-opacity:1"
       d="m 88.793913,14.036759 c -0.217874,-0.07599 -0.742319,0.03612 -0.976861,-0.03155 -0.458136,0.137707 -0.323782,-0.04559 -0.491302,-0.08804 -0.249335,-0.01833 -0.643811,0.268291 -0.909489,0.213037 -0.378684,0.340335 -0.915446,-0.333881 -1.170413,-0.378042 -0.558436,-0.259502 -0.44514,-0.226264 -0.581874,-0.247681 -0.405903,-0.216816 -0.138169,0.09143 -0.376711,0.06018 -0.08796,0.106768 -0.724283,0.136529 -1.165043,0.09549 -0.248491,0.204065 -0.982969,-0.193578 -1.36544,-0.219296 -0.501732,-0.147213 -0.482184,-0.09383 -0.746112,-0.107481 -0.326992,-0.07988 -0.969999,0.160784 -1.345312,0.148521 -0.529947,0.18539 -0.686379,0.03091 -0.983423,0.02499 -0.448368,0.04114 -0.639224,-0.0078 -0.993654,-0.01024 -0.353397,8.26e-4 -0.877336,0.322576 -1.298126,0.325355 -0.439023,0.327767 -1.123517,-0.107161 -1.517182,-0.100608 -0.653235,-0.109285 -0.672704,0.03403 -0.979357,0.04132 -0.471777,0.03244 -0.547944,0.02998 -0.961405,0.04326 -0.257894,0.02566 -0.908759,0.09315 -1.446477,0.115313 -0.350203,0.07713 -1.04508,0.228246 -1.551228,0.252631 -0.490494,0.20658 -0.436156,0.0013 -0.883723,0.02499 -0.167448,-0.0099 -1.316707,0.420055 -1.946914,0.456814 -0.526998,0.37883 -1.011566,0.02259 -1.464147,0.05 -0.567948,-0.0028 -0.704407,0.119187 -1.161268,0.147698 -0.361333,0.09898 -0.469454,-0.266836 -1.040011,-0.230426 -0.06861,-0.291315 -1.472143,0.12368 -2.214758,0.172679 -0.522305,0.06318 -1.019727,0.08033 -1.534777,0.114717 -0.521311,0.04759 -1.073618,0.130738 -1.600853,0.166087 -0.547216,0.09561 -0.79188,0.167661 -1.315147,0.202565 -0.368193,0.139083 -1.217734,0.158269 -1.839713,0.198919 -0.531841,0.112126 -1.216143,0.452554 -1.766479,0.487509 -0.624912,0.413454 -0.876653,0.0643 -1.380725,0.09466 -0.470918,0.03738 -1.288914,0.43744 -1.890653,0.471215 -0.618147,0.396092 -1.074489,0.140881 -1.601329,0.167707 -0.583114,0.111765 -0.892431,-0.04717 -1.452464,-0.02196 -0.423522,-0.07321 -1.31715,0.622791 -1.967761,0.648016 -0.586452,0.588389 -1.321112,0.095 -1.886204,0.112144 -0.711375,0.06942 -0.559845,-0.0022 -1.076576,0.0094 -0.269366,-0.01475 -1.912431,-0.01277 -2.658981,-0.0038 -0.87185,-0.03698 -1.097465,0.279611 -1.540195,0.282361 -0.731224,0.273477 -0.684492,-0.01 -1.202595,-0.01114 -0.35695,-0.01578 -1.544606,-0.01249 -2.255526,-0.02198 -0.676189,-0.01258 -1.216607,-0.09445 -1.76608,-0.106292 -0.670297,-0.0894 -0.918028,0.40472 -1.469303,0.388791 -0.476939,0.411417 -0.969255,0.594797 -1.631847,0.566513 -0.375544,0.606604 -1.167582,-0.276762 -1.901941,-0.325309 -0.391299,-0.25061 -1.418487,-0.222477 -2.110487,-0.278999 -0.613901,-0.172512 -0.86638,-0.03672 -1.439803,-0.08903 -0.401831,-0.0024 -1.427779,-0.228118 -2.112604,-0.298074 -0.624531,-0.156984 -1.148044,-0.267153 -1.707691,-0.327673 -0.596371,-0.212449 -1.148969,-0.280709 -1.714369,-0.342954 -0.585867,-0.220411 -1.141582,0.05683 -1.708001,-0.0042 -0.590837,0.117988 -1.148864,0.146409 -1.73044,0.0805 -0.578438,0.206189 -1.196049,-0.11814 -1.78949,-0.19628 -0.579349,-0.05276 -1.48308,-0.101412 -2.05406,-0.185494 -0.804551,-0.01435 -0.963228,0.56453 -1.4193821,0.489478 C 9.0386053,17.666019 8.4143061,16.98353 7.8083205,16.822131 7.2037651,16.836222 6.7161192,16.8885 6.1677353,16.699413 5.6150022,16.895535 4.9202512,16.154375 4.3432646,15.888084 3.7895653,15.592685 3.7984243,15.49571 3.3532186,15.328535 2.835577,15.134162 1.8583226,14.926716 1.3122679,14.843506"
       id="path3464"
       inkscape:path-effect="#path-effect3829"
       inkscape:original-d="M 88.793913,14.036759 C 75.93932,9.5533036 33.743027,19.805841 1.4065672,14.878296"
       sodipodi:nodetypes="cc" />
  </g>
</svg>
