<?xml version="1.0" encoding="UTF-8" standalone="no"?>
<!-- Created with Inkscape (http://www.inkscape.org/) -->

<svg
   width="50mm"
   height="50mm"
   viewBox="0 0 50 50"
   version="1.1"
   id="svg5"
   inkscape:version="1.2.1 (9c6d41e410, 2022-07-14)"
   sodipodi:docname="done.svg"
   xmlns:inkscape="http://www.inkscape.org/namespaces/inkscape"
   xmlns:sodipodi="http://sodipodi.sourceforge.net/DTD/sodipodi-0.dtd"
   xmlns="http://www.w3.org/2000/svg"
   xmlns:svg="http://www.w3.org/2000/svg">
  <sodipodi:namedview
     id="namedview7"
     pagecolor="#ffffff"
     bordercolor="#666666"
     borderopacity="1.0"
     inkscape:showpageshadow="2"
     inkscape:pageopacity="0.0"
     inkscape:pagecheckerboard="0"
     inkscape:deskcolor="#d1d1d1"
     inkscape:document-units="mm"
     showgrid="false"
     inkscape:zoom="2.3786088"
     inkscape:cx="135.58346"
     inkscape:cy="144.20194"
     inkscape:window-width="1920"
     inkscape:window-height="1001"
     inkscape:window-x="-7"
     inkscape:window-y="-7"
     inkscape:window-maximized="1"
     inkscape:current-layer="layer1" />
  <defs
     id="defs2" />
  <g
     inkscape:label="Layer 1"
     inkscape:groupmode="layer"
     id="layer1">
    <rect
       style="fill:none;stroke:#000000;stroke-width:5;stroke-linecap:round;stroke-linejoin:round;stroke-miterlimit:2;stroke-dasharray:none;paint-order:markers stroke fill;stop-color:#000000"
       id="rect234"
       width="37"
       height="37"
       x="6.5"
       y="6.5"
       rx="5"
       ry="4.9999995" />
    <g
       id="path5578"
       style="paint-order:markers stroke fill;stroke-width:2;stroke-dasharray:none">
      <path
         style="color:#000000;fill:#4d4d4d;stroke-width:2;stroke-linecap:round;paint-order:markers stroke fill;stroke-dasharray:none"
         d="M 3.0561724,6.9549313 C 19.819812,17.452363 34.181103,30.832612 46.496015,46.668517"
         id="path5594" />
      <path
         style="color:#000000;fill:#666666;stroke-linecap:round;stroke:#ffffff;paint-order:markers stroke fill;stroke-width:2;stroke-dasharray:none"
         d="M 4.3828125,4.8359375 A 2.5,2.5 0 0 0 0.9375,5.6289062 2.5,2.5 0 0 0 1.7285156,9.0742188 C 18.226589,19.405352 32.367811,32.572047 44.523437,48.203125 a 2.5,2.5 0 0 0 3.507813,0.439453 2.5,2.5 0 0 0 0.4375,-3.507812 C 35.994577,29.094065 21.411985,15.499646 4.3828125,4.8359375 Z"
         id="path5591" />
      <path
         style="color:#000000;fill:#666666;stroke:#ffffff;stroke-linecap:round;paint-order:markers stroke fill;stroke-width:2;stroke-dasharray:none"
         d="m 45.168344,4.8359375 a 2.5,2.5 0 0 1 3.445313,0.7929687 2.5,2.5 0 0 1 -0.791016,3.4453126 C 31.324568,19.405352 17.183346,32.572047 5.0277196,48.203125 a 2.5,2.5 0 0 1 -3.507813,0.439453 2.5,2.5 0 0 1 -0.4375,-3.507812 C 13.55658,29.094065 28.139172,15.499646 45.168344,4.8359375 Z"
         id="path5596" />
      <path
         style="color:#000000;fill:#666666;stroke-linecap:round;stroke:none;paint-order:markers stroke fill;stroke-width:2;stroke-dasharray:none"
         d="M 4.3828125,4.8359375 A 2.5,2.5 0 0 0 0.9375,5.6289062 2.5,2.5 0 0 0 1.7285156,9.0742188 C 18.226589,19.405352 32.367811,32.572047 44.523437,48.203125 a 2.5,2.5 0 0 0 3.507813,0.439453 2.5,2.5 0 0 0 0.4375,-3.507812 C 35.994577,29.094065 21.411985,15.499646 4.3828125,4.8359375 Z"
         id="path5598" />
    </g>
  </g>
</svg>
