<?xml version="1.0" encoding="UTF-8" standalone="no"?>
<!-- Created with Inkscape (http://www.inkscape.org/) -->

<svg
   width="50mm"
   height="50mm"
   viewBox="0 0 50 50"
   version="1.1"
   id="svg5"
   xml:space="preserve"
   inkscape:version="1.2.1 (9c6d41e410, 2022-07-14)"
   sodipodi:docname="favicon.svg"
   xmlns:inkscape="http://www.inkscape.org/namespaces/inkscape"
   xmlns:sodipodi="http://sodipodi.sourceforge.net/DTD/sodipodi-0.dtd"
   xmlns="http://www.w3.org/2000/svg"
   xmlns:svg="http://www.w3.org/2000/svg"><sodipodi:namedview
     id="namedview7"
     pagecolor="#ffffff"
     bordercolor="#666666"
     borderopacity="1.0"
     inkscape:showpageshadow="2"
     inkscape:pageopacity="0.0"
     inkscape:pagecheckerboard="0"
     inkscape:deskcolor="#d1d1d1"
     inkscape:document-units="mm"
     showgrid="false"
     inkscape:zoom="2.3786088"
     inkscape:cx="67.476417"
     inkscape:cy="95.433936"
     inkscape:window-width="1920"
     inkscape:window-height="1001"
     inkscape:window-x="-7"
     inkscape:window-y="-7"
     inkscape:window-maximized="1"
     inkscape:current-layer="layer1" /><defs
     id="defs2" /><g
     inkscape:label="Layer 1"
     inkscape:groupmode="layer"
     id="layer1"><g
       id="g1075"
       transform="matrix(0.9899115,0,0,0.98967927,0.25221236,0.25801958)"
       style="stroke-width:1.01031"><g
         aria-label="&lt;?&gt;"
         transform="scale(1.0087515,0.99132443)"
         id="text356"
         style="font-size:42.7778px;line-height:1.25;font-family:'Berlin Sans FB Demi';-inkscape-font-specification:'Berlin Sans FB Demi';letter-spacing:0px;word-spacing:0px;stroke-width:0.26731"><path
           d="M 12.281883,38.398862 Q 9.44117,36.184777 5.9738286,33.490277 3.3628788,31.505955 0.62660345,30.754001 -2.4497509e-5,30.586901 -2.4497509e-5,29.98116 q 0,-0.417752 0.06266279751,-1.232368 0.06266279,-0.835504 0.06266279,-1.253256 0,-0.355089 -0.06266279,-1.086155 -0.06266279751,-0.751954 -0.06266279751,-1.12793 0,-0.543078 0.626627947509,-0.772842 1.90077145,-0.710178 5.43077555,-2.861601 1.2323683,-0.751953 2.9451514,-2.109647 2.6109496,-2.046985 2.8407136,-2.214085 0.167101,-0.146214 0.52219,-0.292427 0.501302,0.208876 1.441244,2.130535 0.898167,1.838109 0.898167,2.485624 0,0.208876 -0.292427,0.584853 -2.945151,3.613555 -7.7910738,4.929473 -0.208876,0.04178 -0.417752,0.271539 0.08355,0.167101 0.3759768,0.292427 5.973853,2.443849 7.874625,5.117461 0.292426,0.417752 0.292426,0.647516 0,0.60574 -1.002605,2.715388 -1.023492,2.193197 -1.462132,2.193197 z"
           id="path414"
           style="stroke:#747bff;stroke-width:0.505155;stroke-dasharray:none;stroke-opacity:1" /><path
           d="m 33.232144,18.304993 q 0,5.201012 -4.198407,7.623973 -3.154027,1.796334 -3.425566,3.634442 -0.06266,0.480415 -0.104438,0.96083 -0.146213,0.438639 -0.751954,0.438639 -2.109647,0 -3.028702,0.250651 -0.187988,0.06266 -0.292426,0.06266 -0.751953,0 -0.751953,-2.046984 0,-1.775446 2.046984,-4.386396 2.067872,-2.631837 2.067872,-4.407283 0,-2.6945 -2.861601,-2.6945 -1.817221,0 -4.720597,1.420356 -0.898167,0 -0.898167,-5.326337 0,-0.584853 0.06266,-0.87728 0.292427,-1.399469 3.488229,-2.17231 2.318524,-0.563965 4.469946,-0.563965 3.780656,0 6.26628,2.109648 2.631837,2.234973 2.631837,5.973853 z m -5.660539,17.963334 q 0,1.608345 -1.12793,2.778051 -1.107043,1.169705 -2.715388,1.169705 -1.608345,0 -2.736276,-1.169705 -1.107042,-1.169706 -1.107042,-2.778051 0,-1.608345 1.107042,-2.736275 1.127931,-1.148818 2.736276,-1.148818 1.608345,0 2.715388,1.148818 1.12793,1.12793 1.12793,2.736275 z"
           id="path416"
           style="fill:#747bff;fill-opacity:1;stroke:#000000;stroke-width:1.01031;stroke-dasharray:none;stroke-opacity:1" /><path
           d="m 49.566246,29.98116 q 0,0.543078 -0.647516,0.772841 -1.900771,0.710179 -5.430776,2.861601 -1.21148,0.751954 -2.945151,2.08876 -2.590062,2.067872 -2.840713,2.234973 -0.167101,0.146213 -0.52219,0.292427 -0.43864,-0.187989 -1.315919,-1.942547 -0.856391,-1.754558 -0.856391,-2.276748 0,-0.229764 0.313314,-0.605741 3.362903,-4.135744 7.603085,-5.30545 0.208876,-0.04177 0.43864,-0.271538 -0.104438,-0.167101 -0.396864,-0.292427 -5.723202,-2.360298 -7.811962,-5.347225 -0.292427,-0.375977 -0.292427,-0.626628 0,-0.52219 1.023493,-2.61095 1.023492,-2.08876 1.378581,-2.08876 2.840714,2.214086 6.308055,4.908586 2.61095,1.984322 5.347225,2.736275 0.647516,0.167101 0.647516,0.772842 0,0.417752 -0.06266,1.253255 -0.06266,0.814617 -0.06266,1.232369 0,0.355089 0.06266,1.107042 0.06266,0.731066 0.06266,1.107043 z"
           id="path418"
           style="stroke:#747bff;stroke-width:0.505155;stroke-dasharray:none;stroke-opacity:1" /></g></g></g></svg>
